<?xml version="1.0" encoding="utf-8"?>
<!-- Generator: Adobe Illustrator 20.1.0, SVG Export Plug-In . SVG Version: 6.00 Build 0)  -->
<svg version="1.1"
	 id="svg2" xmlns:cc="http://creativecommons.org/ns#" xmlns:dc="http://purl.org/dc/elements/1.1/" xmlns:rdf="http://www.w3.org/1999/02/22-rdf-syntax-ns#" xmlns:svg="http://www.w3.org/2000/svg"
	 xmlns="http://www.w3.org/2000/svg" xmlns:xlink="http://www.w3.org/1999/xlink" x="0px" y="0px" viewBox="0 0 36 28"
	 style="enable-background:new 0 0 36 28;" xml:space="preserve">
<style type="text/css">
	.st0{fill:#FFFFFF;}
</style>
<g id="g10" transform="matrix(1.3333333,0,0,-1.3333333,0,28)">
	<g id="g12" transform="scale(0.1)">
		<path id="path14" class="st0" d="M72.6,172.5c-2.9,11.6-14.3,19.4-27,19.4c-21.1,0-30.7-16.9-30.7-35.7s9.6-35.7,30.7-35.7
			c14.8,0,25.9,10.2,27.9,25.3l11.9-1.4c-3.8-20.2-21.1-33-39.8-33c-26.6,0-42.9,18.2-42.9,44.9S18.9,201,45.6,201
			c18.4,0,33.6-8.9,38.7-26.4L72.6,172.5"/>
		<path id="path16" class="st0" d="M101,198.9h11.3v-75.6h42.6v-9.8H101V198.9"/>
		<path id="path18" class="st0" d="M171.5,198.9h11.3v-85.4h-11.3V198.9"/>
		<path id="path20" class="st0" d="M201.1,198.9h42.7c10.3,0,22.3-6,22.3-24.6c0-16.7-12.2-24.3-23.3-24.3h-30.5v-36.5H201
			L201.1,198.9z M212.4,159.8h26.1c9.7,0,16.3,4.3,16.3,14.6c0,9.5-4.3,14.6-14.8,14.6h-27.7L212.4,159.8"/>
		<path id="path22" class="st0" d="M5.3,88.9h11.3V13.3h42.6V3.5H5.3V88.9"/>
		<path id="path24" class="st0" d="M102,88.9h12l30.9-85.4h-12.1l-9.1,26.1H91.3L81.5,3.5H69.4L102,88.9z M108,74.8h-0.2l-13-35.4
			h25.4L108,74.8"/>
		<path id="path26" class="st0" d="M154.6,88.9h39.9c20.8,0,27.1-12,27.1-22.2c0-8.8-5.4-15.8-12.5-18v-0.2
			c10.4-2.5,15-11.2,15-21.7c0-6.5-3.1-23.3-25.9-23.3h-43.7L154.6,88.9L154.6,88.9z M165.8,52.7h26c9.2,0,17.5,2.3,17.5,13.6
			c0,12.8-9.1,12.8-17.6,12.8h-25.9V52.7z M165.8,13.3h30.3c9.1,0.1,15.7,4.3,15.7,13.9c0,14.9-10.1,15.6-19.8,15.6h-26.3
			L165.8,13.3"/>
	</g>
</g>
</svg>
